<?xml version="1.0" encoding="iso-8859-1"?>
<!-- Generator: Adobe Illustrator 19.0.0, SVG Export Plug-In . SVG Version: 6.00 Build 0)  -->
<svg version="1.1" id="Layer_1" xmlns="http://www.w3.org/2000/svg" xmlns:xlink="http://www.w3.org/1999/xlink" x="0px" y="0px"
	 viewBox="0 0 511.989 511.989" style="enable-background:new 0 0 511.989 511.989;" xml:space="preserve">
<path style="fill:#D770AD;" d="M430.991,343.34c-0.594-3.312-2.719-6.188-5.749-7.688l-86.343-42.905
	c-5-2.469-11.062-0.688-13.905,4.094L227.848,459.9c-2.773,4.656-1.609,10.656,2.711,13.938l40.335,30.655
	c1.914,1.438,4.194,2.156,6.444,2.156c2.844,0,5.656-1.125,7.75-3.312L428.21,352.559
	C430.554,350.089,431.585,346.683,430.991,343.34z"/>
<path style="opacity:0.1;enable-background:new    ;" d="M377.32,323.746l-2.141-12.969l-36.28-18.03
	c-5-2.469-11.062-0.688-13.905,4.094L227.848,459.9c-2.773,4.656-1.609,10.656,2.711,13.938l25.476,19.375l26.304-33.219
	L377.32,323.746z"/>
<path style="fill:#EC87C0;" d="M420.492,355.87c-1.625,0-3.25-0.375-4.75-1.125L329.4,311.84c-3.75-1.844-6.062-5.719-5.906-9.906
	s2.734-7.905,6.594-9.499l46.561-19.125c1.484-0.594,3.062-0.875,4.656-0.781l31.969,1.812c5.125,0.281,9.312,4.188,9.984,9.25
	l7.796,60.249c0.516,3.905-1.172,7.78-4.375,10.062C424.836,355.214,422.664,355.87,420.492,355.87z"/>
<path style="opacity:0.1;fill:#FFFFFF;enable-background:new    ;" d="M415.742,354.745c1.5,0.75,3.125,1.125,4.75,1.125
	c2.172,0,4.344-0.656,6.187-1.969c3.203-2.281,4.891-6.156,4.375-10.062l-7.796-60.249c-0.141-1.094-0.484-2.156-0.938-3.156
	l-51.172,52.155L415.742,354.745z"/>
<path style="fill:#D770AD;" d="M59.695,343.34c0.586-3.312,2.727-6.188,5.758-7.688l86.326-42.905
	c5-2.469,11.062-0.688,13.914,4.094L262.832,459.9c2.773,4.656,1.609,10.656-2.711,13.938l-40.335,30.655
	c-1.921,1.438-4.187,2.156-6.445,2.156c-2.836,0-5.656-1.125-7.742-3.312L62.461,352.557
	C60.133,350.089,59.101,346.683,59.695,343.34z"/>
<path style="opacity:0.1;enable-background:new    ;" d="M113.366,323.746l2.133-12.969l36.28-18.03
	c5-2.469,11.062-0.688,13.914,4.094L262.832,459.9c2.773,4.656,1.609,10.656-2.711,13.938l-25.476,19.375l-26.312-33.219
	L113.366,323.746z"/>
<path style="fill:#EC87C0;" d="M64.008,353.901c-3.211-2.281-4.898-6.156-4.391-10.062l7.812-60.249
	c0.656-5.062,4.852-8.969,9.977-9.25l31.96-1.812c1.594-0.094,3.18,0.188,4.656,0.781l46.562,19.125
	c3.875,1.594,6.453,5.312,6.609,9.499c0.148,4.188-2.164,8.062-5.914,9.906l-86.334,42.906c-1.5,0.75-3.125,1.125-4.75,1.125
	C68.015,355.87,65.844,355.214,64.008,353.901z"/>
<path style="opacity:0.1;fill:#FFFFFF;enable-background:new    ;" d="M74.945,354.745c-1.5,0.75-3.125,1.125-4.75,1.125
	c-2.18,0-4.351-0.656-6.187-1.969c-3.211-2.281-4.898-6.156-4.391-10.062l7.812-60.249c0.141-1.094,0.469-2.156,0.93-3.156
	l51.171,52.155L74.945,354.745z"/>
<path style="fill:#FFCE54;" d="M511.989,37.339c0,5.891-4.781,10.672-10.655,10.672c-5.906,0-10.688-4.781-10.688-10.672
	s4.781-10.672,10.688-10.672C507.208,26.667,511.989,31.448,511.989,37.339z"/>
<path style="fill:#5D9CEC;" d="M469.335,421.338c0,5.875-4.781,10.656-10.688,10.656c-5.875,0-10.656-4.781-10.656-10.656
	c0-5.905,4.781-10.688,10.656-10.688C464.554,410.65,469.335,415.432,469.335,421.338z"/>
<path style="fill:#A0D468;" d="M298.65,16.011c0,5.875-4.766,10.656-10.656,10.656s-10.656-4.781-10.656-10.656
	c0-5.906,4.766-10.671,10.656-10.671S298.65,10.104,298.65,16.011z"/>
<path style="fill:#AC92EB;" d="M85.335,165.336c0,5.891-4.781,10.672-10.671,10.672S64,171.227,64,165.336
	s4.773-10.672,10.664-10.672S85.335,159.445,85.335,165.336z"/>
<path style="fill:#ED5564;" d="M21.336,357.339c0,5.875-4.781,10.656-10.672,10.656C4.774,367.995,0,363.214,0,357.339
	c0-5.906,4.773-10.687,10.664-10.687S21.336,351.432,21.336,357.339z"/>
<path style="fill:#FC6E51;" d="M32,37.339V26.667c0-5.891-4.773-10.656-10.664-10.656s-10.672,4.766-10.672,10.656v10.672
	C4.774,37.339,0,42.105,0,48.011c0,5.891,4.773,10.656,10.664,10.656v10.672c0,5.89,4.781,10.671,10.672,10.671S32,75.229,32,69.339
	V58.667c5.891,0,10.665-4.766,10.665-10.656C42.664,42.104,37.891,37.339,32,37.339z"/>
<path style="fill:#48CFAD;" d="M437.335,165.336v-10.672c0-5.891-4.781-10.655-10.687-10.655c-5.875,0-10.656,4.765-10.656,10.655
	v10.672c-5.891,0-10.656,4.766-10.656,10.672c0,5.891,4.766,10.656,10.656,10.656v10.671c0,5.891,4.781,10.672,10.656,10.672
	c5.905,0,10.687-4.781,10.687-10.672v-10.671c5.875,0,10.656-4.766,10.656-10.656C447.991,170.101,443.21,165.336,437.335,165.336z"
	/>
<path id="SVGCleanerId_0" style="fill:#967ADC;" d="M328.025,168.976c-2.031-2.312-4.953-3.641-8.031-3.641H170.661
	c-3.07,0-6,1.328-8.023,3.641c-2.023,2.312-2.953,5.391-2.546,8.438l42.663,319.984c0.711,5.312,5.227,9.25,10.578,9.25h64.005
	c5.344,0,9.859-3.938,10.562-9.25l42.656-319.984C330.963,174.367,330.041,171.289,328.025,168.976z"/>
<g>
	<path id="SVGCleanerId_0_1_" style="fill:#967ADC;" d="M328.025,168.976c-2.031-2.312-4.953-3.641-8.031-3.641H170.661
		c-3.07,0-6,1.328-8.023,3.641c-2.023,2.312-2.953,5.391-2.546,8.438l42.663,319.984c0.711,5.312,5.227,9.25,10.578,9.25h64.005
		c5.344,0,9.859-3.938,10.562-9.25l42.656-319.984C330.963,174.367,330.041,171.289,328.025,168.976z"/>
</g>
<g style="opacity:0.1;">
	<path d="M245.331,165.336h-74.67c-3.07,0-6,1.328-8.023,3.641c-2.023,2.312-2.953,5.391-2.546,8.438l42.663,319.984
		c0.711,5.312,5.227,9.25,10.578,9.25h31.999V165.336H245.331z"/>
</g>
<path style="fill:#AC92EB;" d="M319.994,186.664H170.661c-3.961,0-7.602-2.203-9.445-5.703c-1.843-3.516-1.578-7.766,0.672-11.031
	l42.664-61.748c0.938-1.359,2.18-2.469,3.617-3.266l42.671-23.578c4.656-2.578,10.5-1.328,13.687,2.938l63.999,85.326
	c2.438,3.234,2.812,7.562,1,11.172C327.728,184.383,324.025,186.664,319.994,186.664z"/>
<path style="opacity:0.1;fill:#FFFFFF;enable-background:new    ;" d="M329.525,180.773c1.812-3.609,1.438-7.938-1-11.172
	l-63.999-85.326c-1.5-2.016-3.586-3.328-5.859-3.922l-13.336,106.311h74.663C324.025,186.664,327.728,184.383,329.525,180.773z"/>
<g>
</g>
<g>
</g>
<g>
</g>
<g>
</g>
<g>
</g>
<g>
</g>
<g>
</g>
<g>
</g>
<g>
</g>
<g>
</g>
<g>
</g>
<g>
</g>
<g>
</g>
<g>
</g>
<g>
</g>
</svg>
